<?xml version="1.0" encoding="utf-8"?>
<!-- Generator: Adobe Illustrator 24.3.0, SVG Export Plug-In . SVG Version: 6.00 Build 0)  -->
<svg version="1.1" id="Calque_1" xmlns="http://www.w3.org/2000/svg" xmlns:xlink="http://www.w3.org/1999/xlink" x="0px" y="0px"
	 viewBox="0 0 846 475" style="enable-background:new 0 0 846 475;" xml:space="preserve">
<style type="text/css">
	.st0{fill:#FD575F;}
	.st1{fill:#E53671;}
	.st2{fill:#EF456A;}
	.st3{fill:#DC3773;}
	.st4{fill:#FE605E;}
	.st5{fill:#F54E67;}
	.st6{fill:#FE7E65;}
	.st7{fill:#D63175;}
	.st8{fill:#FE8C43;}
	.st9{fill:#CA247B;}
	.st10{fill:#FE8840;}
	.st11{fill:#FE9767;}
	.st12{fill:#FE9253;}
	.st13{fill:#FE9455;}
	.st14{fill:#EB446A;}
	.st15{fill:#FD6A49;}
	.st16{fill:#FE635E;}
	.st17{fill:#FD9663;}
	.st18{fill:#BF2377;}
	.st19{fill:#C22177;}
	.st20{fill:#FD785D;}
	.st21{fill:#FD9875;}
	.st22{fill:#B0167E;}
	.st23{fill:#FDFDFE;}
	.st24{fill:#F3F8F8;}
	.st25{fill:#1A607E;}
	.st26{font-family:'MicrosoftJhengHeiUIBold';}
	.st27{font-size:81px;}
	.st28{letter-spacing:20;}
</style>
<g>
	<path class="st0" d="M460.82,152.73c1.34,10.27,3.71,20.42,3.08,30.89c-0.87,14.56-1.97,29.09-5.78,43.25
		c-1.78,1.68-3.92,2.61-6.3,1.98c-5.92-1.56-11.91-0.61-17.86-0.7c-12.09-0.19-15.39-3.39-15.41-15.38c0-1.33-0.07-2.66,0.04-3.98
		c-0.06-7.96,0.05-15.93-0.05-23.89c-0.08-6.21-1.88-8.69-7.79-10.56c-5.42-1.72-11.02-2.22-16.7-2.26
		c-6.08-0.04-11.48-1.73-14.85-7.35c1.19-11.34,3.58-22.4,7.78-33.03c0.8-1.27,1.69-2.53,3.16-3.02c7.79-2.58,15.34-6.17,23.91-5.37
		c2.74,0.25,5.24,0.75,6.67,3.44c1.52,7.25,0.52,14.59,0.71,21.88c0.2,7.88,3.2,10.61,10.96,8.55c5.89-1.57,11.75-2.13,17.77-1.95
		c2.72,0.08,5.29-0.23,7.5-2.09C458.53,152.4,459.63,151.83,460.82,152.73z"/>
	<path class="st1" d="M420,208.69c0.01,2.48,0.01,4.97,0.02,7.45c0.02,6.81,3.3,10.4,10.17,10.48c4.94,0.06,9.94,0.69,14.83-0.46
		c1.62-0.38,3,0.27,4.29,0.82c3.02,1.28,5.89,0.52,8.82-0.09c-3.26,16.25-7.45,32.2-14.78,47.17c-0.58,1.18,0.12,2.7-1.05,3.7
		c-1.48,1.57-3.3,1.69-4.99,0.68c-3.65-2.18-7.72-2.95-11.72-4.06c-5.4-1.5-6.86-3.62-6.95-9.39c-0.1-5.99,0.01-11.98-0.05-17.97
		c-0.04-3.27-1.1-6.35-4.36-7.14c-9.46-2.29-19.01-4.14-28.35-6.95c-2.78-8.48-4.2-17.21-4.93-26.08c-0.98-7.19,1.29-9.36,7.54-6.28
		c5.68,2.79,11.47,2.49,17.38,2.71C411.13,203.47,416.57,203.55,420,208.69z"/>
	<path class="st2" d="M309.56,262.79c-9.32-15.09-14.55-31.56-16.56-49.11c3.19-1.65,5.33,0.92,7.6,2.17
		c2.88,1.58,5.59,2.04,8.91,1.85c6.04-0.34,12.15-0.41,18.18,0.53c3.56,0.56,6.55,2.17,8.72,5.14c2.08,1.92,2.92,4.65,4.52,6.88
		c6.19,10.06,12.51,20.04,19,29.91c1.1,1.67,3.1,3.55,0.1,5.41c-8.27,0.12-16.53-0.52-24.79-0.7c-7.59-0.16-15.23-0.77-22.84-1.23
		C311.36,263.59,310.46,263.22,309.56,262.79z"/>
	<path class="st3" d="M532.49,261.79c-8.93,15.88-21.34,28.55-36.19,38.91c-1.2,0.83-2.6,1.38-3.9,2.05
		c-8.6,1.33-17.04,1.84-25.37-1.86c-5.53-2.46-11.27-3.17-16.07,2.04c-0.78,0.85-1.88,1.36-3.13,1.27c-2.23-1.6-0.49-2.94,0.5-3.94
		c11.73-11.84,21.84-25,31.78-38.31c0.91-1.22,2.06-2.16,3.53-2.67c6.5-3.35,13.08-0.59,19.56-0.01c4.64,0.42,9.15,0.84,13.85,0.4
		C522.24,259.19,527.58,259.35,532.49,261.79z"/>
	<path class="st4" d="M336.06,224.65c-4.43-4.81-9.6-6.13-16.26-5.4c-4.72,0.52-9.65-0.58-14.61,0.23
		c-2.88,0.47-4.93-2.85-7.69-3.91c-1.5-0.58-2.78-1.77-4.5-1.9c-2.29-6.87-2.21-14.1-2.77-21.17c-1.13-14.26-1.54-28.58-2.26-42.87
		c-0.27-5.31-0.56-10.62-0.85-15.93c4.68-0.27,8.18,1.71,10.53,5.7c2.13,3.61,3.09,7.69,4.45,11.61
		c5.29,15.27,12.83,29.52,19.99,43.94c3.8,8.33,8.51,16.19,12.79,24.27C335.77,220.89,337.47,222.45,336.06,224.65z"/>
	<path class="st5" d="M532.49,261.79c-11.9-0.48-23.85-0.48-35.68-1.67c-4.81-0.48-9.31-1.28-13.9,0.5
		c-1.28-2.29,0.55-3.76,1.56-5.31c4.07-6.23,8.32-12.34,11.84-18.92c3.04-4.15,4.86-9.11,8.39-12.95c4.86-3.92,9.8-5.05,16.44-3.98
		c8.18,1.32,16.76-0.14,24.15-5.03c1.13-0.75,2.02-2.33,3.79-1.49c0.08,0.04,0.1,0.26,0.09,0.39c-0.01,0.16-0.07,0.32-0.11,0.48
		C546.84,230.95,541.57,247.03,532.49,261.79z"/>
	<path class="st6" d="M460.82,152.73c-4.68,5.32-10.97,3.92-16.87,3.92c-2.87,0-5.59,0.36-8.32,1.24c-2.18,0.71-4.51,1.6-6.72,1.49
		c-7.71-0.4-8.88-1.86-8.89-9.7c-0.01-7.66-0.02-15.32-0.04-22.98c-1.66-2.52-1.63-5.37-1.54-8.2c0.21-6.14-0.58-12.31,0.51-18.42
		c0.5-1.19,1.3-2.24,2.52-0.98c4.25,4.39,9.55,2.35,14.47,2.51c2.28,0.07,4.42-1.5,6.81-0.79
		C449.77,117.78,457.39,134.53,460.82,152.73z"/>
	<path class="st7" d="M309.56,262.79c7.88-1.04,15.71-0.36,23.51,0.74c5.9,0.83,11.76-0.78,17.7,0.03c3.4,0.46,6.77,1.76,10.31,1.07
		c1.89-0.38,2.66,1.09,3.47,2.27c6.04,8.75,12.96,16.78,19.77,24.91c0.96,1.15,2.77,2.18,1.45,4.19
		c-9.44-2.57-17.91,2.46-26.89,3.51c-3.26,0.38-3.74,4.95-7.21,5.26C333.83,294.58,319.65,280.74,309.56,262.79z"/>
	<path class="st8" d="M321.06,195.7c-8.32-16.7-17.26-33.12-22.32-51.24c-1.65-5.91-6.04-9-11.61-10.76
		c-1.67-9.45-2.84-18.99-4.51-28.68c2.25,3.15,4.49,6.3,6.75,9.43c10.46,14.47,22.27,27.78,34.79,40.46
		c10.61,10.75,20.89,21.74,28.98,34.58c-0.31,2.73-2.24,1.91-3.46,1.25c-6.73-3.66-11.63-0.77-16.14,4.13
		C328.17,200.74,326.84,200.79,321.06,195.7z"/>
	<path class="st9" d="M385.87,232.92c0.4-2.45,1.92-2.62,3.58-1.45c6.87,4.82,15.15,4.31,22.79,6.13c5.56,1.33,7.71,3.45,7.73,9.06
		c0.03,6.66,0.18,13.32-0.03,19.98c-0.09,2.8,1.03,4.68,3.32,5.48c5.55,1.93,11.55,2.54,16.63,5.87c0.52,0.34,1.58-0.14,2.39-0.23
		c-4.99,13-10.54,25.74-17.16,38c-4.42-1.76-4.55-6.02-5.39-9.68c-1.68-7.32-1.11-14.8-1.17-22.23c-0.05-6.42-0.22-6.28-6.01-8.42
		c-4.85-1.79-9.8-2.43-14.87-2.63C392.5,259.86,388.31,246.65,385.87,232.92z"/>
	<path class="st10" d="M488.93,190.6c4.92-9.77,12.16-17.86,19.6-25.61c17.97-18.72,36.01-37.35,50.71-59.38
		c1.64,3.42-1.87,5.39-1.24,8.07c-8.26,20.14-16.34,40.36-25.46,60.14c-2.65,5.75-6.07,11.08-8.62,16.88
		c-1.52,2.14-1.88,5.13-4.61,6.41c-4.87,1.04-8.08-2.51-11.81-4.46c-2.77-1.45-4.91-2.15-8.28-0.9
		C496.18,192.89,492.03,193.77,488.93,190.6z"/>
	<path class="st11" d="M386.02,295.66c-8.73-10.01-16.91-20.46-24.94-31.03c-6.38-10.17-12.76-20.34-19.12-30.51
		c-0.7-1.12-1.29-2.3-1.92-3.45c1.12-2.41,2.66-0.85,3.74-0.17c3.8,2.38,7.18,2.63,11.62,0.75c4.09-1.73,8.99-1.94,13.66-1.63
		c4.29,11.97,7.43,24.32,12.37,36.09c8.86,21.08,20.45,40.43,35.41,57.75c-1.01,1.39-2.13,0.61-2.99-0.03
		C403.26,315.49,393.4,306.81,386.02,295.66z"/>
	<path class="st12" d="M488.93,190.6c3.83,0.09,7.88,1.85,11.37-0.8c2.38-1.81,3.99-0.46,5.83,0.61c4.14,2.4,8.01,5.34,12.86,6.28
		c1.12,1.23,0.54,2.52-0.03,3.67c-4.17,8.38-8.08,16.93-13.99,24.31c-3.05,3.74-4.25,8.69-7.88,12.05
		c-5.37,4.46-11.13,1.67-16.41,0.24c-2.99-0.81-5.75-1.62-8.82-1.28C475.93,220.04,479.81,204.33,488.93,190.6z"/>
	<path class="st13" d="M369.05,229.62c-2.4,1.64-5.26,1.72-7.95,1.97c-2.95,0.28-5.56,0.41-8.28,2.3c-2.67,1.85-5.94,0.07-8.64-1.58
		c-1.29-0.79-2.14-2.66-4.14-1.65c-1.33-2-2.65-4.01-3.98-6.01c-5-9.65-10-19.3-15-28.95c5.15,3.55,8.65,2.6,12.55-2.7
		c3.97-5.4,9.96-7.59,16.56-3.27c0.98,0.64,2.09,1.22,2.98-0.23C361.52,201.66,365.88,215.4,369.05,229.62z"/>
	<path class="st14" d="M420,208.69c-6.2-4.14-13.21-4.35-20.27-3.95c-3.94,0.22-7.4-0.75-10.88-2.55c-6.3-3.27-7.71-2.33-7.91,4.67
		c-1.91-6.11-2.11-12.42-2.08-18.75c-0.53-5.87-0.62-11.74,0.04-17.6c0.1-1.92,0.19-3.84,0.29-5.76c7.52,7.65,17.65,5.31,26.73,6.87
		c2.99,0.51,5.91,1.27,8.55,2.51c3.4,1.6,5.63,4.35,5.56,8.6C419.89,191.37,420,200.03,420,208.69z"/>
	<path class="st15" d="M420.04,98.69c-0.02,9.34-0.04,18.67-0.06,28.01c-4.44-3.44-9.72-2.62-14.3-1.49
		c-6.36,1.57-12.87,3.17-18.7,6.49c2.07-8.89,6.05-17.09,9.42-25.49c8.94-22.29,17.24-44.78,22.72-68.22
		c0.29-1.22,0.92-2.36,1.39-3.54c0.12,0.05,0.32,0.07,0.36,0.16c0.12,0.3,0.18,0.63,0.27,0.94c2.83,11.18,0.07,22.44,0.44,33.65
		c0.26,7.63,0.1,15.27,0.02,22.91C421.57,94.39,421.88,96.81,420.04,98.69z"/>
	<path class="st16" d="M504.97,224.68c4.01-7.67,8.04-15.32,12-23.02c0.81-1.58,1.35-3.31,2.02-4.97c1.33-2,2.66-4,3.99-6
		c3.54-6.98,11.12-8.01,17.11-11.19c5.23-2.79,10.79-4.58,11.18-11.75c0.04-0.81,0.79-1.44,1.82-1.09
		c-1.18,15.73-0.51,31.62-4.03,47.16c-7.83,5.91-17.11,6.88-26.41,7.76c-0.49,0.05-1.1,0.17-1.47-0.05
		C514.79,217.59,509.89,221.2,504.97,224.68z"/>
	<path class="st17" d="M471.86,235.68c2.64-2.09,4.63-2.25,8.14-0.37c5.06,2.7,11.2,3.25,17.09,1.42
		c-2.64,6.77-7.31,12.32-11.06,18.42c-1.1,1.79-2.78,3.26-3.12,5.48c-6.16,7.77-12.43,15.44-18.43,23.33
		c-5.33,7.01-11.78,13-17.4,19.73c-4.87,7.2-11.41,12.69-18.36,17.74c-0.88,0.64-2.07,1.18-3.13,0.05
		c5.5-7.5,11.22-14.85,16.47-22.52c12.76-18.66,22.05-39,28.67-60.59C471,237.44,471.47,236.57,471.86,235.68z"/>
	<path class="st18" d="M386.02,295.66c5.45,5.58,10.7,11.36,16.41,16.66c4.44,4.12,8.72,8.59,14.41,11.13
		c0.71,0.85,1.43,1.7,3.11,3.7c-22.49-2.32-42.55-7.89-61.17-18.42c-1.35-2-3.53-2.47-5.64-3.08c-0.49-0.3-0.98-0.6-1.47-0.89
		c2.59-5.48,7.4-7.25,12.97-8.08c4.88-0.73,9.9-0.97,14.37-3.48C382.23,291.4,383.28,295.99,386.02,295.66z"/>
	<path class="st19" d="M425.58,321.48c5.15-1.81,8.53-5.98,12.46-9.39c3.1-2.69,6.02-5.6,9.03-8.41c0.88-0.41,2.05-0.59,2.59-1.28
		c4.98-6.38,11.25-5.38,17.61-3.02c5.95,2.21,11.72,4.4,18.32,2.5c2.02-0.58,4.52,0.54,6.8,0.87
		c-19.61,12.08-40.61,20.43-63.53,23.52c-2.56,0.34-5.39,1.82-7.84-0.55l-0.08,0.07C422.89,324.78,424.34,323.24,425.58,321.48z"/>
	<path class="st20" d="M553.08,166.65c-0.96,0.61-1.16,1.58-1.09,2.6c0.42,6.41-4.51,8.12-8.96,10.32
		c-6.86,3.39-14.35,5.65-20.06,11.12c2.03-7.07,6.53-12.96,9.44-19.64c7.14-16.39,14.46-32.69,20.79-49.42
		c1.08-2.86,1.91-6.07,4.79-7.93c-0.8,11.91-2.97,23.68-3.59,35.62C554.11,155.08,554.63,160.97,553.08,166.65z"/>
	<path class="st21" d="M420.04,98.69c-0.24-21.06,0.11-42.11,1.09-63.14c6.42,22.02,13.31,43.88,21.63,65.27
		c-4.54,2.38-9.42,1.85-14.29,2.33C423.71,103.6,421.95,101.87,420.04,98.69z"/>
	<path class="st22" d="M397.69,272.77c7.62-3.88,13.89,1.84,20.78,3.03c2.22,0.39,1.42,2.69,1.5,4.24c0.39,8.1-0.4,16.2,0.86,24.32
		c0.66,4.26,2.42,7.77,4.31,11.39c-0.9,3.55-3.62,6.35-4.18,10.04c0,0,0.08-0.07,0.08-0.07c-4.66-6.29-7.36-13.61-10.52-20.65
		C405.76,294.5,401.05,283.9,397.69,272.77z"/>
	<path class="st0" d="M378.91,170.49c-0.01,5.87-0.03,11.73-0.04,17.6C377.84,182.23,377.71,176.36,378.91,170.49z"/>
	<path class="st7" d="M353.14,305.66c2.69-0.45,5.11-0.42,5.64,3.08C356.59,308.28,354.81,307.08,353.14,305.66z"/>
	<path class="st23" d="M470.99,402.14c0-0.33-0.12-0.73,0.02-0.99c1.45-2.65-3.12-7.62,2.65-8.38c8.91-1.17,15.11,2.31,16.04,8.2
		c0.74,4.71-2.52,8.69-8.25,10.07C471.84,413.36,470.99,412.63,470.99,402.14z"/>
	<path class="st24" d="M565.18,419.5c-5.11,0-9.57,0-14.03,0c-1.42,0-3.01-0.11-2.06-2.11c2.51-5.27,5.22-10.45,8.1-16.17
		C560,407.66,562.52,413.42,565.18,419.5z"/>
</g>
<g>
	<text transform="matrix(1 0 0 1 199.959 441.8301)" class="st25 st26 st27 st28">SOLARA</text>
</g>
</svg>
